<!DOCTYPE svg [<!ENTITY nbsp "&#160;">]><svg version="1.1" id="mscgenjs__svg" class="mscgenjs__svg" xmlns="http://www.w3.org/2000/svg" xmlns:xlink="http://www.w3.org/1999/xlink" width="656" height="436.1999816894531" viewBox="0 0 656 436.1999816894531"><desc>

# Generated by mscgen_js - https://sverweij.github.io/mscgen_js
# Alice and Bob: interactive data sync
msc {
  hscale="2", wordwraparcs=on;

  alice [label="Alice"],
  bob [label="Bob"];

  --- [label="interactive data sync"];
  alice =&gt; alice [label="add offers to payload state"];
  alice &gt;&gt; bob [label="send payload with offers"];
    
  bob =&gt; bob [label="add requests to payload state"];
  bob &gt;&gt; alice [label="send payload with requests"];
  
  alice =&gt; alice [label="add requested messages to state"];
  alice &gt;&gt; bob [label="send payload with messages"];
  
  bob =&gt; bob [label="add acks to payload state"];
  bob &gt;&gt; alice [label="send payload with acks"];
}</desc><defs><style type="text/css">svg.mscgenjs__svg{font-family:Helvetica,sans-serif;font-size:12px;font-weight:normal;font-style:normal;text-decoration:none;background-color:white;stroke:black;stroke-width:2}.mscgenjs__svg path, .mscgenjs__svg rect{fill:none}.mscgenjs__svg .label-text-background{fill:white;stroke:white;stroke-width:0}.mscgenjs__svg .bglayer{fill:white;stroke:white;stroke-width:0}.mscgenjs__svg line{}.mscgenjs__svg .return, .mscgenjs__svg .comment{stroke-dasharray:5,3}.mscgenjs__svg .inline_expression_divider{stroke-dasharray:10,5}.mscgenjs__svg text{color:inherit;stroke:none;text-anchor:middle}.mscgenjs__svg text.anchor-start{text-anchor:start}.mscgenjs__svg .arrow-marker{overflow:visible}.mscgenjs__svg .arrow-style{stroke-width:1}.mscgenjs__svg .arcrow, .mscgenjs__svg .arcrowomit, .mscgenjs__svg .emphasised{stroke-linecap:butt}.mscgenjs__svg .arcrowomit{stroke-dasharray:2,2}.mscgenjs__svg .box, .mscgenjs__svg .entity{fill:white;stroke-linejoin:round}.mscgenjs__svg .inherit{stroke:inherit;color:inherit}.mscgenjs__svg .inherit-fill{fill:inherit}.mscgenjs__svg .watermark{font-size:48pt;font-weight:bold;opacity:0.14}</style><marker orient="auto" id="mscgenjs__svgcallback-black" class="arrow-marker" viewBox="0 0 10 10" refX="9" refY="3" markerUnits="strokeWidth" markerWidth="10" markerHeight="10"><path d="M 1,1 l 8,2 l-8,2" class="arrow-style" style="stroke-dasharray:100,1;stroke:black"></path></marker><marker orient="auto" id="mscgenjs__svgcallback-l-black" class="arrow-marker" viewBox="0 0 10 10" refX="9" refY="3" markerUnits="strokeWidth" markerWidth="10" markerHeight="10"><path d="M17,1 l-8,2 l 8,2" class="arrow-style" style="stroke-dasharray:100,1;stroke:black"></path></marker><marker orient="auto" id="mscgenjs__svgmethod-black" class="arrow-marker" viewBox="0 0 10 10" refX="9" refY="3" markerUnits="strokeWidth" markerWidth="10" markerHeight="10"><polygon points="1,1  9,3  1,5" class="arrow-style" stroke="black" fill="black"></polygon></marker><marker orient="auto" id="mscgenjs__svgmethod-l-black" class="arrow-marker" viewBox="0 0 10 10" refX="9" refY="3" markerUnits="strokeWidth" markerWidth="10" markerHeight="10"><polygon points="17,1 9,3 17,5" class="arrow-style" stroke="black" fill="black"></polygon></marker></defs><g id="mscgenjs__svg_body" transform="translate(68,3) scale(1,1)"><g id="mscgenjs__svg_background"><rect width="656" height="436.2" x="-68" y="-3" class="bglayer"></rect></g><g id="mscgenjs__svg_arcspans"></g><g id="mscgenjs__svg_lifelines"><line x1="100" y1="38" x2="100" y2="76" class="arcrow"></line><line x1="420" y1="38" x2="420" y2="76" class="arcrow"></line><line x1="100" y1="76" x2="100" y2="114" class="arcrow"></line><line x1="420" y1="76" x2="420" y2="114" class="arcrow"></line><line x1="100" y1="114" x2="100" y2="155.05" class="arcrow"></line><line x1="420" y1="114" x2="420" y2="155.05" class="arcrow"></line><line x1="100" y1="155.05" x2="100" y2="193.05" class="arcrow"></line><line x1="420" y1="155.05" x2="420" y2="193.05" class="arcrow"></line><line x1="100" y1="193.05" x2="100" y2="234.1" class="arcrow"></line><line x1="420" y1="193.05" x2="420" y2="234.1" class="arcrow"></line><line x1="100" y1="234.1" x2="100" y2="272.1" class="arcrow"></line><line x1="420" y1="234.1" x2="420" y2="272.1" class="arcrow"></line><line x1="100" y1="272.1" x2="100" y2="313.15" class="arcrow"></line><line x1="420" y1="272.1" x2="420" y2="313.15" class="arcrow"></line><line x1="100" y1="313.15" x2="100" y2="351.15" class="arcrow"></line><line x1="420" y1="313.15" x2="420" y2="351.15" class="arcrow"></line><line x1="100" y1="351.15" x2="100" y2="392.2" class="arcrow"></line><line x1="420" y1="351.15" x2="420" y2="392.2" class="arcrow"></line><line x1="100" y1="392.2" x2="100" y2="430.2" class="arcrow"></line><line x1="420" y1="392.2" x2="420" y2="430.2" class="arcrow"></line></g><g id="mscgenjs__svg_sequence"><g><g><rect width="200" height="38" class="entity"></rect><g><text x="100" y="22.75" class="entity-text "><tspan>Alice</tspan></text></g></g><g><rect width="200" height="38" x="320" class="entity"></rect><g><text x="420" y="22.75" class="entity-text "><tspan>Bob</tspan></text></g></g></g><g><line x1="0" y1="95" x2="520" y2="95" class="comment"></line><g><rect width="111" height="13" x="204.5" y="89.75" class="label-text-background"></rect><text x="260" y="98.75" class="empty-text comment-row-text "><tspan>interactive data sync</tspan></text></g></g><g><path d="M100,126.92 C260,127.02 260,149.72 100,149.72 " class="arc directional method" style="stroke:black" marker-end="url(#mscgenjs__svgmethod-black)"></path><g><rect width="144" height="13" x="103" y="112.67" class="label-text-background"></rect><text x="103" y="121.67" class="directional-text method-text anchor-start "><tspan>add offers to payload state</tspan></text></g></g><g><line x1="100" y1="174.05" x2="420" y2="174.05" class="arc directional return" style="stroke:black" marker-end="url(#mscgenjs__svgcallback-black)"></line><g><rect width="133" height="13" x="193.5" y="160.3" class="label-text-background"></rect><text x="260" y="169.3" class="directional-text return-text "><tspan>send payload with offers</tspan></text></g></g><g><path d="M420,205.97 C580,206.07 580,228.77 420,228.77 " class="arc directional method" style="stroke:black" marker-end="url(#mscgenjs__svgmethod-black)"></path><g><rect width="160" height="13" x="423" y="191.72" class="label-text-background"></rect><text x="423" y="200.72" class="directional-text method-text anchor-start "><tspan>add requests to payload state</tspan></text></g></g><g><line x1="420" y1="253.1" x2="100" y2="253.1" class="arc directional return" style="stroke:black" marker-end="url(#mscgenjs__svgcallback-black)"></line><g><rect width="149" height="13" x="185.5" y="239.35" class="label-text-background"></rect><text x="260" y="248.35" class="directional-text return-text "><tspan>send payload with requests</tspan></text></g></g><g><path d="M100,285.02 C260,285.12 260,307.82 100,307.82 " class="arc directional method" style="stroke:black" marker-end="url(#mscgenjs__svgmethod-black)"></path><g><rect width="180" height="13" x="103" y="270.77" class="label-text-background"></rect><text x="103" y="279.77" class="directional-text method-text anchor-start "><tspan>add requested messages to state</tspan></text></g></g><g><line x1="100" y1="332.15" x2="420" y2="332.15" class="arc directional return" style="stroke:black" marker-end="url(#mscgenjs__svgcallback-black)"></line><g><rect width="158" height="13" x="181" y="318.4" class="label-text-background"></rect><text x="260" y="327.4" class="directional-text return-text "><tspan>send payload with messages</tspan></text></g></g><g><path d="M420,364.07 C580,364.17 580,386.87 420,386.87 " class="arc directional method" style="stroke:black" marker-end="url(#mscgenjs__svgmethod-black)"></path><g><rect width="138" height="13" x="423" y="349.82" class="label-text-background"></rect><text x="423" y="358.82" class="directional-text method-text anchor-start "><tspan>add acks to payload state</tspan></text></g></g><g><line x1="420" y1="411.2" x2="100" y2="411.2" class="arc directional return" style="stroke:black" marker-end="url(#mscgenjs__svgcallback-black)"></line><g><rect width="127" height="13" x="196.5" y="397.45" class="label-text-background"></rect><text x="260" y="406.45" class="directional-text return-text "><tspan>send payload with acks</tspan></text></g></g></g><g id="mscgenjs__svg_notes"></g><g id="mscgenjs__svg_watermark"></g></g></svg>